PathFileType	4	(X/Y/Z)	C:\Users\86182\Documents\cortex\Trimmed_M1_H9.trc
DataRate	CameraRate	NumFrames	NumMarkers	Units	OrigDataRate	OrigDataStartFrame	OrigNumFrames
100.00	100.00	       113	2	mm	100.00	181	       901
Frame#	Time	gripper			box			
		X1	Y1	Z1	X2	Y2	Z2	

181	1.800	223.90981	204.31865	214.90135	230.63411	203.44849	66.55235	
182	1.810	224.06789	204.17116	215.35214	230.65460	203.45988	66.93345	
183	1.820	223.84625	204.29478	216.12206	230.67188	203.47194	67.32390	
184	1.830	223.98868	204.29622	216.40576	230.69064	203.48230	67.72366	
185	1.840	224.09407	204.28174	216.77574	230.71317	203.48854	68.13219	
186	1.850	223.99290	204.26982	217.21704	230.73862	203.49057	68.54552	
187	1.860	224.16489	204.28221	217.56543	230.76361	203.49048	68.95853	
188	1.870	223.94699	204.41599	218.12849	230.78355	203.49025	69.36986	
189	1.880	224.21150	204.27499	218.41235	230.79750	203.49036	69.78118	
190	1.890	224.19933	204.24910	218.91818	230.81097	203.49054	70.19366	
191	1.900	224.27055	204.26865	219.27547	230.83156	203.49123	70.60815	
192	1.910	224.29947	204.28572	219.58354	230.86086	203.49350	71.02713	
193	1.920	224.02080	204.37561	220.08496	230.89140	203.49835	71.45344	
194	1.930	224.15976	204.39519	220.65613	230.91283	203.50653	71.88771	
195	1.940	224.14638	204.30066	221.05960	230.92113	203.51801	72.32865	
196	1.950	224.25278	204.38733	221.45599	230.92003	203.53120	72.77528	
197	1.960	224.17032	204.37244	221.93318	230.91505	203.54337	73.22612	
198	1.970	223.57587	204.42578	222.59357	230.90889	203.55246	73.67696	
199	1.980	223.44528	204.37383	223.02611	230.90132	203.55844	74.12303	
200	1.990	224.05714	204.46405	223.23465	230.89139	203.56238	74.56293	
201	2.000	224.03720	204.40048	223.78925	230.88065	203.56519	74.99733	
202	2.010	223.78798	204.37521	224.32718	230.87401	203.56746	75.42511	
203	2.020	223.37178	204.43411	224.77541	230.87511	203.56960	75.84311	
204	2.030	223.71063	204.57526	225.15030	230.88095	203.57184	76.24873	
205	2.040	223.75549	204.45274	225.59392	230.88326	203.57495	76.63979	
206	2.050	224.08565	204.38843	225.75551	230.87305	203.58066	77.01297	
207	2.060	223.86609	204.44295	226.24026	230.84473	203.59096	77.36569	
208	2.070	223.27657	204.55136	226.97011	230.79959	203.60626	77.69981	
209	2.080	223.61841	204.52774	227.38387	230.74512	203.62468	78.02280	
210	2.090	223.67065	204.46484	227.55080	230.69695	203.59171	78.70659	
211	2.100	223.93901	204.50711	227.87889	230.71527	203.55965	79.39722	
212	2.110	224.20341	204.49220	228.43402	230.82770	203.58095	79.73862	
213	2.120	223.47337	204.55760	229.16353	230.92488	203.60222	80.09467	
214	2.130	223.57288	204.60057	229.41391	231.00151	203.62415	80.47194	
215	2.140	223.93945	204.50269	229.79350	231.05995	203.64769	80.86905	
216	2.150	224.08286	204.51663	230.35551	231.10252	203.67284	81.28177	
217	2.160	224.23599	204.55487	230.70714	231.12759	203.69878	81.70617	
218	2.170	223.76489	204.60559	231.39694	231.12985	203.72568	82.13931	
219	2.180	223.86644	204.64090	231.88612	231.10344	203.75449	82.58004	
220	2.190	223.70694	204.64986	232.19653	231.04558	203.78500	83.02949	
221	2.200	223.98810	204.66994	232.42409	230.96007	203.81499	83.48734	
222	2.210	223.91092	204.60335	233.21748	230.86028	203.84189	83.94617	
223	2.220	224.08868	204.66849	233.62634	230.76459	203.86444	84.39445	
224	2.230	223.68314	204.71080	233.96764	230.68425	203.88257	84.82739	
225	2.240	223.82126	204.69258	234.28386	230.61900	203.89650	85.25074	
226	2.250	223.69365	204.61574	234.76683	230.56448	203.90695	85.67373	
227	2.260	223.45813	204.73703	235.20667	230.51891	203.91534	86.10167	
228	2.270	224.13228	204.64069	235.58871	230.48303	203.92244	86.53519	
229	2.280	223.98720	204.76715	236.10616	230.45816	203.92784	86.97396	
230	2.290	223.79903	204.59439	236.53539	230.44427	203.93161	87.41852	
231	2.300	223.86653	204.68719	236.79984	230.43887	203.93518	87.86965	
232	2.310	223.62648	204.77890	237.17200	230.43849	203.93988	88.32784	
233	2.320	224.08519	204.70761	237.90718	230.44275	203.94547	88.79151	
234	2.330	223.94115	204.65686	238.36287	230.45454	203.95105	89.25540	
235	2.340	224.11714	204.65997	238.57387	230.47472	203.95592	89.71368	
236	2.350	224.13501	204.72231	239.10791	230.49834	203.95959	90.16504	
237	2.360	223.63506	204.68785	239.66164	230.51665	203.96252	90.61205	
238	2.370	224.16739	204.68300	240.04306	230.52347	203.96568	91.05476	
239	2.380	224.42630	204.80020	240.36618	230.51956	203.96852	91.48773	
240	2.390	224.40422	204.71046	240.95341	230.51003	203.96909	91.90424	
241	2.400	224.13657	204.63750	241.24648	230.49823	203.96693	92.30176	
242	2.410	223.78172	204.67455	241.63980	230.48184	203.96405	92.68253	
243	2.420	223.45943	204.78641	242.31938	230.45259	203.96259	93.05231	
244	2.430	223.78560	204.63647	242.85663	230.40224	203.96281	93.41905	
245	2.440	224.23576	204.61302	242.94041	230.33177	203.96330	93.78952	
246	2.450	224.19942	204.51773	243.15216	230.25224	203.96210	94.16666	
247	2.460	223.87343	204.58580	243.85664	230.17520	203.95813	94.55219	
248	2.470	223.47699	204.58907	244.38351	230.10370	203.95238	94.95029	
249	2.480	223.42105	204.61137	244.87857	230.03331	203.94783	95.36706	
250	2.490	223.55600	204.42708	245.21410	229.95946	203.94771	95.80688	
251	2.500	223.84358	204.45084	245.77484	229.88174	203.95355	96.26979	
252	2.510	223.91943	204.52548	245.98315	229.80272	203.96466	96.75075	
253	2.520	223.59232	204.55836	246.40245	229.72533	203.97917	97.24179	
254	2.530	223.27759	204.54691	247.20235	229.65134	203.99559	97.73633	
255	2.540	223.59633	204.57443	247.58966	229.57997	204.01353	98.23126	
256	2.550	224.13806	204.54855	247.77321	229.50864	204.03314	98.72540	
257	2.560	223.65729	204.41496	248.38838	229.43710	204.05377	99.21605	
258	2.570	223.58093	204.58199	249.03563	229.37051	204.07352	99.69759	
259	2.580	223.43192	204.52925	249.42999	229.31708	204.09018	100.16409	
260	2.590	223.50534	204.61813	249.67134	229.28313	204.10190	100.61302	
261	2.600	223.83028	204.48750	250.27580	229.26894	204.10739	101.04626	
262	2.610	223.82262	204.62215	250.66232	229.26682	204.10638	101.46777	
263	2.620	223.57349	204.59406	251.01044	229.26451	204.09966	101.88039	
264	2.630	222.94820	204.40994	251.50554	229.25233	204.08838	102.28481	
265	2.640	223.19145	204.51060	252.24113	229.22832	204.07324	102.68151	
266	2.650	223.50537	204.52025	252.31540	229.19809	204.05457	103.07217	
267	2.660	223.28348	204.47545	252.76009	229.17029	204.03389	103.45916	
268	2.670	222.73747	204.39850	253.38054	229.15092	204.01477	103.84427	
269	2.680	223.08446	204.50983	253.79395	229.14032	204.00142	104.22842	
270	2.690	223.45035	204.54025	254.08524	229.13489	203.99631	104.61275	
271	2.700	223.40417	204.38261	254.48715	229.13142	203.99915	104.99959	
272	2.710	223.01929	204.47903	255.20004	229.12981	204.00769	105.39248	
273	2.720	223.26167	204.58987	255.55830	229.13283	204.01900	105.79547	
274	2.730	223.10971	204.50061	255.97566	229.14267	204.03070	106.21254	
275	2.740	222.78911	204.50031	256.48541	229.15643	204.04170	106.64528	
276	2.750	223.34091	204.63112	256.84769	229.16681	204.05145	107.09027	
277	2.760	222.85689	204.69301	257.39502	229.16800	204.05957	107.54030	
278	2.770	222.68861	204.57979	257.88513	229.16029	204.06564	107.98926	
279	2.780	223.05888	204.59581	258.30856	229.14610	204.06851	108.43555	
280	2.790	222.97353	204.68365	258.74387	229.12248	204.06599	108.88123	
281	2.800	222.86554	204.66142	259.13583	229.08359	204.05603	109.32738	
282	2.810	222.43527	204.67763	259.73114	229.03006	204.03816	109.77121	
283	2.820	222.20117	204.73895	260.15506	228.97017	204.01375	110.20838	
284	2.830	222.66484	204.70789	260.36920	228.91328	203.98546	110.63728	
285	2.840	222.86673	204.66510	260.74994	228.86655	203.95723	111.05978	
286	2.850	222.97554	204.68225	261.22516	228.83527	203.93344	111.47861	
287	2.860	222.18010	204.65842	261.89725	228.82143	203.91624	111.89523	
288	2.870	222.32173	204.77310	262.23663	228.82283	203.90453	112.30992	
289	2.880	222.58040	204.71378	262.52490	228.83591	203.89621	112.72232	
290	2.890	222.84459	204.70651	262.94138	228.85829	203.89107	113.13362	
291	2.900	222.78700	204.69336	263.39877	228.88646	203.88977	113.54924	
292	2.910	222.70616	204.71573	263.82108	228.91356	203.89192	113.97630	
293	2.920	222.49640	204.78239	264.33490	228.93518	203.89645	114.41579	
